# xmcd
#
# Track frame offsets: 
#        150
#        11339
#        23631
#        36805
#        48340
#        60686
#        72812
#        84700
#        96888
#        108821
#        123206
#        133787
#        147700
#        161350
#        174208
#        183896
#        196984
#        210168
#
# Disc length: 2953 seconds
#
# Revision: 0
# Processed by: cddbd v1.5.2PL0 Copyright (c) Steve Scherf et al.
# Submitted via: ExactAudioCopy v1.0b1
#
DISCID=e50b8712
DTITLE=T-Bone Walker - The Essential T-Bone Walker Collection
DYEAR=2011
DGENRE=Blues
TTITLE0=Strollin' With Bone
TTITLE1=Glamour Girl
TTITLE2=You Don't Love Me
TTITLE3=The Hustle Is On
TTITLE4=Life Is Too Short
TTITLE5=Alimony Blues
TTITLE6=You Don't Understand
TTITLE7=I Get So Weary
TTITLE8=Tell Me What's The Reason
TTITLE9=Cold Cold Feeling
TTITLE10=News For My Baby
TTITLE11=Street Walking Woman
TTITLE12=Here In The Dark
TTITLE13=Blue Mood
TTITLE14=Party Girl
TTITLE15=Love Is Just A Gamble
TTITLE16=High Society
TTITLE17=In The Evening
EXTD=
EXTT0=
EXTT1=
EXTT2=
EXTT3=
EXTT4=
EXTT5=
EXTT6=
EXTT7=
EXTT8=
EXTT9=
EXTT10=
EXTT11=
EXTT12=
EXTT13=
EXTT14=
EXTT15=
EXTT16=
EXTT17=
PLAYORDER=
